<svg viewBox="0 0 33 33" fill="none" xmlns="http://www.w3.org/2000/svg"><defs><filter id="a" x="0" y="0" width="33" height="33" filterUnits="userSpaceOnUse" color-interpolation-filters="sRGB"><feFlood flood-opacity="0" result="BackgroundImageFix"/><feColorMatrix in="SourceAlpha" values="0 0 0 0 0 0 0 0 0 0 0 0 0 0 0 0 0 0 127 0" result="hardAlpha"/><feMorphology radius="1" result="BackgroundImageFix"/><feOffset dy="1"/><feGaussianBlur stdDeviation="1"/><feComposite in2="hardAlpha" operator="out" k2="-1" k3="1"/><feColorMatrix values="0 0 0 0 0 0 0 0 0 0 0 0 0 0 0 0 0 0 0.15 0"/><feBlend in2="BackgroundImageFix" result="effect_dropShadow_1"/><feColorMatrix in="SourceAlpha" values="0 0 0 0 0 0 0 0 0 0 0 0 0 0 0 0 0 0 127 0" result="hardAlpha"/><feOffset dy="1"/><feGaussianBlur stdDeviation=".667"/><feComposite in2="hardAlpha" operator="out" k2="-1" k3="1"/><feColorMatrix values="0 0 0 0 0 0 0 0 0 0 0 0 0 0 0 0 0 0 0.3 0"/><feBlend in2="effect_dropShadow_1" result="effect_dropShadow_2"/><feBlend in="SourceGraphic" in2="effect_dropShadow_2" result="shape"/></filter></defs><g filter="url(#a)" fill="#EB6C97"><path d="M27.95 25.91h-20.83c-.28 0-.54-.11-.74-.3-.19-.2-.3-.46-.3-.74v-20.83a1.04 1.04 0 0 0-1.04-1.04 1.03 1.03 0 0 0-1.04 1.04v20.83a3.1 3.1 0 0 0 3.12 3.13h20.83c.28 0 .54-.11.74-.31.2-.2.31-.46.31-.74 0-.27-.11-.54-.31-.73-.2-.2-.46-.31-.74-.31Z"/><path d="M19.62 23.83a1.04 1.04 0 0 0 1.04-1.04v-7.3a1.05 1.05 0 0 0-1.04-1.04 1.04 1.04 0 0 0-1.04 1.04v7.3a1.05 1.05 0 0 0 1.04 1.04Zm-8.33 0c.27 0 .54-.11.73-.31.2-.19.31-.46.31-.73v-7.3c0-.27-.11-.54-.31-.73-.19-.2-.46-.31-.73-.31a1.04 1.04 0 0 0-1.04 1.04v7.3a1.04 1.04 0 0 0 1.04 1.04Zm12.5 0c.27 0 .54-.11.73-.31.2-.19.31-.46.31-.73v-12.5a1.04 1.04 0 0 0-1.04-1.04 1.03 1.03 0 0 0-1.04 1.04v12.5a1.04 1.04 0 0 0 1.04 1.04Zm-8.34 0c.28 0 .54-.11.74-.31.2-.19.31-.46.31-.73v-12.5a1.04 1.04 0 0 0-1.05-1.04 1.04 1.04 0 0 0-1.04 1.04v12.5c0 .27.11.54.31.73.19.2.46.31.73.31Z"/></g></svg>