<svg viewBox="0 0 22.583 33" fill="none" xmlns="http://www.w3.org/2000/svg"><defs><filter id="a" x="0" y="0" width="22.583" height="33" filterUnits="userSpaceOnUse" color-interpolation-filters="sRGB"><feFlood flood-opacity="0" result="BackgroundImageFix"/><feColorMatrix in="SourceAlpha" values="0 0 0 0 0 0 0 0 0 0 0 0 0 0 0 0 0 0 127 0" result="hardAlpha"/><feMorphology radius="1" result="BackgroundImageFix"/><feOffset dy="1"/><feGaussianBlur stdDeviation="1"/><feComposite in2="hardAlpha" operator="out" k2="-1" k3="1"/><feColorMatrix values="0 0 0 0 0 0 0 0 0 0 0 0 0 0 0 0 0 0 0.15 0"/><feBlend in2="BackgroundImageFix" result="effect_dropShadow_1"/><feColorMatrix in="SourceAlpha" values="0 0 0 0 0 0 0 0 0 0 0 0 0 0 0 0 0 0 127 0" result="hardAlpha"/><feOffset dy="1"/><feGaussianBlur stdDeviation=".667"/><feComposite in2="hardAlpha" operator="out" k2="-1" k3="1"/><feColorMatrix values="0 0 0 0 0 0 0 0 0 0 0 0 0 0 0 0 0 0 0.3 0"/><feBlend in2="effect_dropShadow_1" result="effect_dropShadow_2"/><feBlend in="SourceGraphic" in2="effect_dropShadow_2" result="shape"/></filter></defs><g filter="url(#a)"><path d="M13.3 7.16a3.2 3.2 0 0 1 3.2 3.2 1.04 1.04 0 0 0 1.04 1.04c.27 0 .54-.11.73-.31.2-.19.31-.46.31-.73v-.13a5.3 5.3 0 0 0-5.28-5.15h-.97v-1.04a1.04 1.04 0 0 0-1.04-1.04 1.03 1.03 0 0 0-1.04 1.04v1.04h-.98a5.26 5.26 0 0 0-4.51 8.01 5.26 5.26 0 0 0 2.85 2.27l2.64.89v7.58h-.98a3.2 3.2 0 0 1-3.19-3.2c0-.27-.11-.54-.31-.73-.19-.2-.46-.31-.73-.31a1.04 1.04 0 0 0-1.04 1.04v.13a5.24 5.24 0 0 0 5.27 5.15h.98v1.04a1.04 1.04 0 0 0 1.04 1.05c.27 0 .54-.11.73-.31.2-.2.31-.46.31-.74v-1.04h.97a5.3 5.3 0 0 0 5.2-4.43 5.22 5.22 0 0 0-3.53-5.85l-2.64-.88v-7.59h.97Zm1.01 10.44a3.18 3.18 0 0 1 2.14 3.54 3.18 3.18 0 0 1-3.15 2.69h-.97v-6.89l1.98.66Zm-4.06-3.55-1.98-.66a3.2 3.2 0 0 1 1-6.23h.98v6.89Z" fill="#EB6C97"/></g></svg>