<svg viewBox="0 0 33 32.697" fill="none" xmlns="http://www.w3.org/2000/svg"><defs><filter id="a" x="0" y="0" width="33" height="32.697" filterUnits="userSpaceOnUse" color-interpolation-filters="sRGB"><feFlood flood-opacity="0" result="BackgroundImageFix"/><feColorMatrix in="SourceAlpha" values="0 0 0 0 0 0 0 0 0 0 0 0 0 0 0 0 0 0 127 0" result="hardAlpha"/><feMorphology radius="1" result="BackgroundImageFix"/><feOffset dy="1"/><feGaussianBlur stdDeviation="1"/><feComposite in2="hardAlpha" operator="out" k2="-1" k3="1"/><feColorMatrix values="0 0 0 0 0 0 0 0 0 0 0 0 0 0 0 0 0 0 0.15 0"/><feBlend in2="BackgroundImageFix" result="effect_dropShadow_1"/><feColorMatrix in="SourceAlpha" values="0 0 0 0 0 0 0 0 0 0 0 0 0 0 0 0 0 0 127 0" result="hardAlpha"/><feOffset dy="1"/><feGaussianBlur stdDeviation=".667"/><feComposite in2="hardAlpha" operator="out" k2="-1" k3="1"/><feColorMatrix values="0 0 0 0 0 0 0 0 0 0 0 0 0 0 0 0 0 0 0.3 0"/><feBlend in2="effect_dropShadow_1" result="effect_dropShadow_2"/><feBlend in="SourceGraphic" in2="effect_dropShadow_2" result="shape"/></filter></defs><g filter="url(#a)"><path d="M17.89 3.53a2.1 2.1 0 0 0-2.79 0l-11.1 10v10.83c0 .88.35 1.73.97 2.36.63.62 1.47.97 2.36.97h18.33a3.35 3.35 0 0 0 3.34-3.33v-10.83l-11.11-10Zm1.73 22.08h-6.25v-5.24a3.12 3.12 0 0 1 6.25 0v5.24Zm7.29-1.25a1.25 1.25 0 0 1-1.25 1.25h-3.96v-5.24a5.22 5.22 0 0 0-10.41 0v5.24h-3.96a1.25 1.25 0 0 1-1.25-1.25v-9.91l10.42-9.37 10.41 9.37v9.91Z" fill="#EB6C97"/></g></svg>