<svg viewBox="0 0 33 32.999" fill="none" xmlns="http://www.w3.org/2000/svg"><defs><filter id="a" x="0" y="0" width="33" height="33" filterUnits="userSpaceOnUse" color-interpolation-filters="sRGB"><feFlood flood-opacity="0" result="BackgroundImageFix"/><feColorMatrix in="SourceAlpha" values="0 0 0 0 0 0 0 0 0 0 0 0 0 0 0 0 0 0 127 0" result="hardAlpha"/><feMorphology radius="1" result="BackgroundImageFix"/><feOffset dy="1"/><feGaussianBlur stdDeviation="1"/><feComposite in2="hardAlpha" operator="out" k2="-1" k3="1"/><feColorMatrix values="0 0 0 0 0 0 0 0 0 0 0 0 0 0 0 0 0 0 0.15 0"/><feBlend in2="BackgroundImageFix" result="effect_dropShadow_1"/><feColorMatrix in="SourceAlpha" values="0 0 0 0 0 0 0 0 0 0 0 0 0 0 0 0 0 0 127 0" result="hardAlpha"/><feOffset dy="1"/><feGaussianBlur stdDeviation=".667"/><feComposite in2="hardAlpha" operator="out" k2="-1" k3="1"/><feColorMatrix values="0 0 0 0 0 0 0 0 0 0 0 0 0 0 0 0 0 0 0.3 0"/><feBlend in2="effect_dropShadow_1" result="effect_dropShadow_2"/><feBlend in="SourceGraphic" in2="effect_dropShadow_2" result="shape"/></filter></defs><g filter="url(#a)" fill="#EB6C97"><path d="M27.95 14.45h-2.08v-2.08a1.04 1.04 0 0 0-1.04-1.04c-.28 0-.54.11-.74.3-.19.2-.3.46-.3.74v2.08h-2.09c-.27 0-.54.11-.73.31a1.02 1.02 0 0 0 0 1.47c.19.2.46.31.73.31h2.09v2.08c0 .28.11.54.3.74a1.05 1.05 0 0 0 1.78-.74v-2.08h2.08c.28 0 .54-.11.74-.31a1.02 1.02 0 0 0 0-1.47c-.2-.2-.46-.31-.74-.31Zm-14.58 1.05a6.22 6.22 0 0 0 5.77-3.86 6.2 6.2 0 0 0-1.35-6.81 6.2 6.2 0 0 0-9.62.94 6.25 6.25 0 0 0 5.2 9.73Zm0-10.42a4.13 4.13 0 0 1 3.85 2.57 4.15 4.15 0 0 1-5.44 5.44 4.16 4.16 0 0 1 1.59-8.01Zm0 12.5a9.37 9.37 0 0 0-9.37 9.37 1.03 1.03 0 0 0 1.04 1.04 1.04 1.04 0 0 0 1.04-1.04 7.3 7.3 0 0 1 14.58 0 1.04 1.04 0 0 0 1.04 1.04 1.04 1.04 0 0 0 1.05-1.04 9.43 9.43 0 0 0-9.38-9.37Z"/></g></svg>