<svg viewBox="0 0 43 43" fill="none" xmlns="http://www.w3.org/2000/svg"><path d="M21.5.5c-11.58 0-21 9.42-21 21 0 11.57 9.42 21 21 21 11.57 0 21-9.43 21-21 0-11.58-9.43-21-21-21Zm-8.75 38.14v-1.39a8.75 8.75 0 0 1 17.5 0v1.39a19.12 19.12 0 0 1-17.5 0Zm19.25-1.02v-.37a10.5 10.5 0 0 0-21 0v.37a19.23 19.23 0 0 1 10.5-35.37 19.25 19.25 0 0 1 10.5 35.37Zm-10.5-28.37a7 7 0 1 0-.01 13.99 7 7 0 0 0 .01-13.99Zm0 12.25a5.26 5.26 0 1 1 .01-10.51 5.26 5.26 0 0 1-.01 10.51Z" fill="#FFF"/><path d="M.5 21.5c0 11.57 9.42 21 21 21 11.57 0 21-9.43 21-21 0-11.58-9.43-21-21-21-11.58 0-21 9.42-21 21Zm12.25 15.75a8.75 8.75 0 0 1 17.5 0v1.39a19.12 19.12 0 0 1-17.5 0v-1.39Zm19.25 0a10.5 10.5 0 0 0-21 0v.37a19.23 19.23 0 0 1 10.5-35.37 19.25 19.25 0 0 1 10.5 35.37v-.37Zm-17.5-21a7 7 0 1 0 14 0 7 7 0 0 0-14 0Zm1.75 0a5.25 5.25 0 1 1 10.5 0 5.25 5.25 0 0 1-10.5 0Z" stroke="#FFF"/></svg>