<svg viewBox="0 0 16.66 16.995" fill="none" xmlns="http://www.w3.org/2000/svg"><path d="M15.8 6.02c-.32-.45-.73-.8-1.18-1.05a3.05 3.05 0 0 0-1.44-.37h-2.77l.24-1.69c.08-.59-.02-1.2-.28-1.71a2.2 2.2 0 0 0-1.16-1.08 1.8 1.8 0 0 0-1.47.07c-.46.24-.84.67-1.06 1.21l-1.13 2.72v12.87h7.15c.83 0 1.64-.37 2.27-1.02a4.4 4.4 0 0 0 1.16-2.53l.49-4.13a4.89 4.89 0 0 0-.82-3.29Zm-15.8 2.71v4.13c0 1.09.36 2.14 1.01 2.92a3.24 3.24 0 0 0 2.46 1.21h.69v-12.39h-.69c-.92 0-1.81.44-2.46 1.21a4.54 4.54 0 0 0-1.01 2.92Z" fill="#B6B6B6"/></svg>