<svg viewBox="0 0 37 7" fill="none" xmlns="http://www.w3.org/2000/svg"><path d="m2.32 4.06-1.07 1.14v1.8h-1.25v-7h1.25v3.58l3.34-3.58h1.41l-2.84 3.12 2.76 3.55 2.9-6.67h1.23l3.05 7h-1.31l-.68-1.63h-3.37l-.67 1.63h-2.37l-2.38-2.94Zm11.64-4.06h1.25v5.89h3.53v1.11h-4.78v-7Zm7.03 0h-1.26v7h1.26v-7Zm7.83 0v7h-1.04l-3.72-4.75v4.75h-1.24v-7h1.03l3.72 4.74v-4.74h1.25Zm2.14 7 .67-1.63h3.38l.67 1.63h1.32l-3.05-7h-1.24l-3.04 7h1.29Zm-21.54-5.71 1.28 3.06h-2.54l1.26-3.06Zm23.9 0 1.27 3.06h-2.53l1.26-3.06Z" fill="#EB6C97" fill-rule="evenodd"/></svg>