<svg viewBox="0 0 23 5" fill="none" xmlns="http://www.w3.org/2000/svg"><path d="M0 5v-5h1.56q.54 0 .89.2.21.12.36.29.09.11.15.25.17.35.17.79 0 .44-.17.78a1.2 1.2 0 0 1-.51.54l-.18.08 1.04 2.07h-.65l-.97-1.96h-1.13v1.96h-.56Zm4.06-5v5h2.83v-.54h-2.26v-1.7h2.08v-.54h-2.08v-1.69h2.23v-.53h-2.8Zm4 0 1.37 4.2h.06l1.37-4.2h.59l-1.7 5h-.58l-1.7-5h.59Zm4.67 5v-5h-.56v5h.56Zm1.12 0v-5h2.79v.53h-2.23v1.69h2.09v.54h-2.09v1.7h2.27v.54h-2.83Zm3.38-5 1.26 5h.58l1.02-3.99h.04l1.02 3.99h.58l1.27-5h-.57l-.97 4.07h-.05l-.98-4.07h-.63l-.99 4.07h-.04l-.97-4.07h-.57Zm-15.68 2.5h-.99v-1.97h.98q.38 0 .6.13.14.07.24.18l.1.16q.1.23.1.53 0 .3-.1.52l-.08.12q-.1.13-.25.21-.23.12-.6.12Z" fill="#FFF" fill-opacity=".4" fill-rule="evenodd"/></svg>