<svg viewBox="0 0 37 7" fill="none" xmlns="http://www.w3.org/2000/svg"><path d="M3.48 7q-.77 0-1.43-.28l-.36-.17q-.4-.24-.72-.56v-.01q-.3-.3-.52-.69-.09-.15-.16-.32-.29-.67-.29-1.47 0-.83.31-1.52.06-.14.14-.27.23-.41.55-.73.31-.3.7-.53.2-.11.4-.19.64-.26 1.39-.26.78 0 1.42.27.31.13.58.32.28.2.51.47l-.61.62q-.36-.4-.81-.6-.48-.21-1.05-.21-.56 0-1.03.19-.16.06-.3.15-.27.15-.48.36-.27.25-.45.59-.06.09-.1.2-.23.51-.23 1.14 0 .59.21 1.09.05.13.12.25.17.3.4.54.24.23.53.4.14.09.3.15.47.19 1.03.19.53 0 .99-.19.48-.2.87-.63l.61.62q-.19.23-.43.41-.3.24-.67.39-.64.28-1.42.28Zm11.64-.09q-.28-.06-.55-.15a2.88 2.88 0 0 1-1.08-.63l.35-.76c.25.24.57.43.96.58.4.14.8.21 1.22.21.54 0 .95-.09 1.22-.28q.23-.16.33-.38.08-.18.08-.39a.75.75 0 0 0-.23-.57 1.39 1.39 0 0 0-.55-.34 8.43 8.43 0 0 0-.91-.27c-.5-.12-.9-.24-1.21-.37-.3-.12-.56-.31-.78-.56q-.32-.39-.32-1.05 0-.37.13-.7.06-.15.14-.29c.19-.29.48-.53.85-.7.38-.18.85-.26 1.41-.26.39 0 .77.05 1.15.15.37.11.7.26.97.45l-.31.78a3.27 3.27 0 0 0-1.81-.55q-.8 0-1.21.3-.22.17-.32.39-.08.18-.08.39 0 .23.1.41.05.09.13.17c.15.14.34.26.56.34.22.08.53.16.91.25.5.13.9.25 1.2.38q.19.07.36.19.23.15.41.37l.03.04q.3.37.3.99c0 .36-.09.69-.28.99-.19.29-.48.52-.86.7-.38.17-.85.26-1.41.26q-.46 0-.9-.09Zm16.58-.36c.53.3 1.13.45 1.8.45a3.36 3.36 0 0 0 3.04-1.71c.3-.53.46-1.13.46-1.79 0-.67-.16-1.27-.46-1.79-.3-.54-.72-.96-1.25-1.26a3.6 3.6 0 0 0-1.79-.45c-.67 0-1.27.15-1.8.45q-.38.22-.69.51-.33.33-.58.75c-.3.53-.45 1.13-.45 1.79 0 .65.15 1.25.45 1.78q.24.41.56.73.31.31.71.54Zm-24.54.37.73-1.71h3.5l.73 1.71h.99l-3-6.85h-.93l-2.99 6.85h.97Zm13.73-6.85h-.94v6.85h.94v-6.85Zm7.65 0v6.85h-.77l-3.96-5.11v5.11h-.94v-6.85h.77l3.96 5.11v-5.11h.94Zm6.26 5.71a2.5 2.5 0 0 1-1.3.34q-.52 0-.97-.17-.18-.07-.35-.17a2.54 2.54 0 0 1-1.26-2.28c0-.5.11-.95.33-1.34.23-.41.54-.72.93-.95q.17-.1.35-.17.45-.17.97-.17c.48 0 .91.11 1.3.34.39.23.69.54.91.95.23.39.34.84.34 1.34a2.64 2.64 0 0 1-1.25 2.28Zm-25.16-4.71 1.42 3.35h-2.84l1.42-3.35Z" fill="#FFF" fill-rule="evenodd"/></svg>